<svg width="264" height="90" viewBox="0 0 264 90" fill="none" xmlns="http://www.w3.org/2000/svg">
<rect x="68" y="70" width="195.453" height="8.01036" rx="4.00518" fill="url(#paint0_linear_26_60)"/>
<path d="M0 21.4722H36.6835V26.0983H28.0828C29.842 27.7924 30.6891 30.0078 30.6891 32.5489C30.6891 35.6764 29.3859 38.2176 26.91 40.1071C30.8194 43.5605 32.5135 47.0138 32.5135 51.0536C32.5135 57.9602 27.6267 62 20.72 62C12.0541 62 6.77636 56.9177 1.88956 41.9315L6.64604 39.9768C10.6858 52.6173 14.2043 57.1783 20.0684 57.1783C24.1082 57.1783 26.9751 55.0282 26.9751 50.7278C26.9751 47.2093 25.4113 44.5378 22.4141 42.3225C20.4594 42.9741 18.1789 43.365 15.5074 43.5605L14.4649 38.804C22.2186 38.0873 25.4113 36.5235 25.4113 32.158C25.4113 29.6168 24.043 27.4666 21.8928 26.0983H0V21.4722ZM35.6965 21.4722H72.771V26.0983H66.0598V62H60.7821V42.5831H48.9886V46.1016C48.9886 48.5124 47.6854 49.7504 45.6656 49.7504C42.4729 49.7504 38.1073 44.9288 38.1073 41.28C38.1073 39.3253 39.1498 37.957 42.0819 37.957H60.7821V26.0983H35.6965V21.4722ZM119.729 29.0304C122.596 29.0304 125.05 29.5951 127.092 30.7245C129.133 31.8105 130.697 33.4177 131.783 35.5461C132.913 37.6746 133.477 40.2592 133.477 43.2998V62H125.593V44.6682C125.593 38.6302 122.9 35.6113 117.514 35.6113C114.603 35.6113 112.366 36.4583 110.802 38.1524C109.282 39.8465 108.522 42.2573 108.522 45.3849V62H100.638V44.6682C100.638 38.6302 97.9231 35.6113 92.4933 35.6113C89.6264 35.6113 87.411 36.4583 85.8472 38.1524C84.3269 39.8465 83.5667 42.2573 83.5667 45.3849V62H75.6827V30.0078H83.5667V34.0475C86.1296 30.7028 89.9522 29.0304 95.0344 29.0304C97.9448 29.0304 100.442 29.5951 102.528 30.7245C104.656 31.8539 106.22 33.4828 107.219 35.6113C108.479 33.3959 110.151 31.7453 112.236 30.6593C114.321 29.5734 116.819 29.0304 119.729 29.0304ZM167.357 54.4417C167.879 54.0074 168.313 53.4861 168.661 52.878C169.008 52.2698 169.247 51.64 169.377 50.9884H177.261C176.827 53.9856 175.524 56.4616 173.352 58.4163C171.658 59.9801 169.551 61.1312 167.032 61.8697C164.512 62.6081 161.71 62.9773 158.626 62.9773C154.109 62.9773 150.265 62.1737 147.094 60.5665C143.966 58.9159 141.729 56.5702 140.382 53.5295C139.383 51.4879 138.884 48.9903 138.884 46.0365C138.884 43.213 139.383 40.6718 140.382 38.4131C141.729 35.4158 143.944 33.1136 147.028 31.5064C150.112 29.8557 153.826 29.0304 158.17 29.0304C162.514 29.0304 166.185 29.8775 169.182 31.5715C172.223 33.2222 174.416 35.5461 175.763 38.5434C176.327 39.9768 176.74 41.4754 177.001 43.0392C177.305 44.603 177.457 46.3405 177.457 48.2518H146.833C146.963 49.6418 147.267 50.8147 147.745 51.7703C148.527 53.5078 149.874 54.811 151.785 55.6797C153.696 56.5485 155.998 56.9829 158.692 56.9829C160.559 56.9829 162.232 56.7874 163.709 56.3965C165.229 55.9621 166.445 55.3105 167.357 54.4417ZM158.17 35.09C155.564 35.09 153.349 35.5461 151.524 36.4583C149.743 37.3271 148.462 38.652 147.68 40.4329C147.332 41.2583 147.094 41.9967 146.963 42.6483H169.442C169.356 41.9533 169.117 41.1497 168.726 40.2375C167.944 38.4999 166.641 37.2185 164.816 36.3932C162.992 35.5244 160.777 35.09 158.17 35.09ZM197.033 63.0425C193.297 63.0425 190.148 62.4995 187.585 61.4136C185.022 60.2842 183.219 58.5684 182.177 56.2661C181.569 54.8761 181.221 53.182 181.134 51.1839H189.018C189.018 52.3133 189.192 53.2472 189.539 53.9856C190.061 55.115 190.973 55.9621 192.276 56.5268C193.623 57.0915 195.295 57.3738 197.293 57.3738C199.161 57.3738 200.725 57.1783 201.984 56.7874C203.244 56.353 204.069 55.7232 204.46 54.8978C204.678 54.4635 204.786 53.9856 204.786 53.4644C204.786 52.9866 204.678 52.487 204.46 51.9658C204.2 51.4011 203.7 50.945 202.962 50.5975C202.223 50.2065 201.159 49.859 199.769 49.5549C198.423 49.2509 196.468 48.8817 193.905 48.4473C191.081 47.9695 188.736 47.2744 186.868 46.3622C185.044 45.45 183.762 44.1035 183.024 42.3225C182.589 41.3234 182.372 40.1506 182.372 38.804C182.372 37.5443 182.611 36.328 183.089 35.1552C184.001 33.157 185.695 31.6367 188.171 30.5942C190.691 29.5517 193.601 29.0304 196.902 29.0304C200.334 29.0304 203.266 29.5734 205.698 30.6593C208.174 31.7019 209.912 33.3091 210.911 35.481C211.476 36.6538 211.758 38.0873 211.758 39.7814H204.135C204.135 38.9995 203.983 38.2393 203.679 37.5009C203.157 36.4583 202.289 35.6982 201.072 35.2203C199.899 34.6991 198.466 34.4385 196.772 34.4385C193.297 34.4385 191.234 35.1986 190.582 36.719C190.408 37.0665 190.321 37.5009 190.321 38.0221C190.321 38.5434 190.408 38.956 190.582 39.2601C190.886 39.8682 191.407 40.3678 192.146 40.7587C192.928 41.1497 193.775 41.4537 194.687 41.6709C195.599 41.8881 196.902 42.1487 198.596 42.4528C198.944 42.4962 199.574 42.6048 200.486 42.7786C203.7 43.4302 206.263 44.2338 208.174 45.1894C210.086 46.145 211.454 47.4916 212.279 49.2292C212.714 50.2282 212.931 51.4011 212.931 52.7477C212.931 54.1811 212.67 55.4843 212.149 56.6571C211.193 58.829 209.347 60.4362 206.611 61.4787C203.874 62.5212 200.681 63.0425 197.033 63.0425ZM250.393 36.2629C251.262 38.3479 251.696 40.7587 251.696 43.4953V62H243.812V58.1557C240.988 61.3701 236.601 62.9773 230.65 62.9773C227.349 62.9773 224.569 62.4995 222.31 61.5439C220.095 60.5448 218.574 59.0896 217.749 57.1783C217.228 56.0055 216.967 54.6589 216.967 53.1386C216.967 51.5314 217.228 50.1414 217.749 48.9685C218.878 46.4491 220.963 44.7333 224.004 43.8211C227.088 42.9089 230.998 42.4528 235.732 42.4528H243.747V41.8664C243.747 41.2148 243.703 40.6501 243.616 40.1723C243.53 39.6945 243.377 39.1949 243.16 38.6737C242.031 36.2411 239.251 35.0249 234.82 35.0249C230.433 35.0249 227.74 36.1543 226.741 38.4131C226.437 38.9778 226.285 39.5642 226.285 40.1723H218.335C218.466 38.4782 218.77 37.0665 219.248 35.9371C220.334 33.548 222.223 31.8105 224.916 30.7245C227.609 29.5951 230.889 29.0304 234.755 29.0304C238.838 29.0304 242.183 29.6168 244.789 30.7897C247.439 31.919 249.307 33.7435 250.393 36.2629ZM243.095 51.8355C243.573 50.7929 243.812 49.5984 243.812 48.2518V47.8609H236.058C233.148 47.8609 230.78 48.0563 228.956 48.4473C227.175 48.8382 226.002 49.5984 225.438 50.7278C225.22 51.249 225.112 51.792 225.112 52.3567C225.112 53.0083 225.199 53.573 225.372 54.0508C225.85 55.0933 226.741 55.8318 228.044 56.2661C229.347 56.7005 230.867 56.9177 232.605 56.9177C235.124 56.9177 237.318 56.4833 239.186 55.6146C241.054 54.7024 242.357 53.4427 243.095 51.8355Z" fill="white"/>
<defs>
<linearGradient id="paint0_linear_26_60" x1="68" y1="74.0052" x2="263.453" y2="74.0052" gradientUnits="userSpaceOnUse">
<stop stop-color="#BFD4FD"/>
<stop offset="1" stop-color="#2B71FA"/>
</linearGradient>
</defs>
</svg>
